<?xml version="1.0" encoding="utf-8"?>
<!-- Generator: Adobe Illustrator 25.2.1, SVG Export Plug-In . SVG Version: 6.00 Build 0)  -->
<svg version="1.1" id="Слой_1" xmlns="http://www.w3.org/2000/svg" xmlns:xlink="http://www.w3.org/1999/xlink" x="0px" y="0px"
	 viewBox="0 0 1000 1000" style="enable-background:new 0 0 1000 1000;" xml:space="preserve">
<path fill="#4D3BF5" class="st0" d="M855,425h-64.5c-7.1-27.5-18-53.5-32.1-77.4l45-45c7.8-7.8,7.8-20.5,0-28.3l-77.8-77.8
	c-7.8-7.8-20.5-7.8-28.3,0l-45,45c-23.9-14.1-49.9-25-77.4-32.1V145c0-11-9-20-20-20H445c-11,0-20,9-20,20v64.5
	c-25.2,6.5-49.1,16.1-71.3,28.5l-48.2-48.2c-7.8-7.8-20.5-7.8-28.3,0l-77.8,77.8c-7.8,7.8-7.8,20.5,0,28.3l45.7,45.7
	c-15.9,25.5-28.1,53.6-35.7,83.4H145c-11,0-20,9-20,20v110c0,11,9,20,20,20h64.5c8.1,31.5,21.2,61,38.3,87.5l-48.3,48.3
	c-7.8,7.8-7.8,20.5,0,28.3l77.8,77.8c7.8,7.8,20.5,7.8,28.3,0l52.5-52.5c20.9,11.3,43.4,20.1,66.9,26.2V855c0,11,9,20,20,20h110
	c11,0,20-9,20-20v-64.5c29.9-7.7,57.9-19.8,83.4-35.7l55.4,55.4c7.8,7.8,20.5,7.8,28.3,0l77.8-77.8c7.8-7.8,7.8-20.5,0-28.3
	L762,646.3c12.4-22.2,22.1-46.1,28.5-71.3H855c11,0,20-9,20-20V445C875,434,866,425,855,425z M509.7,605.5
	c-58.2,0-105.5-47.2-105.5-105.5s47.2-105.5,105.5-105.5S615.1,441.8,615.1,500S567.9,605.5,509.7,605.5z"/>
</svg>
